HIERARCHY
ROOT Hips
{
	OFFSET	0.00	0.00	0.00
	CHANNELS 6 Xposition Yposition Zposition Zrotation Xrotation Yrotation
	JOINT LeftUpLeg
	{
		OFFSET	 0.126116	-0.014019	-0.065224
		CHANNELS 3 Zrotation Xrotation Yrotation
		JOINT LeftLeg
		{
			OFFSET	 0.000000	 0.000000	 0.569914
			CHANNELS 3 Zrotation Xrotation Yrotation
			JOINT LeftFoot
			{
				OFFSET	 0.000000	 0.000000	 0.544423
				CHANNELS 3 Zrotation Xrotation Yrotation
				JOINT LeftToeBase
				{
					OFFSET	 0.000000	 0.000000	 0.207117
					CHANNELS 3 Zrotation Xrotation Yrotation
					End Site
					{
						OFFSET	 0.000000	 0.000000	 0.207117
					}
				}
			}
		}
	}
	JOINT RightUpLeg
	{
		OFFSET	-0.124023	-0.008373	-0.065224
		CHANNELS 3 Zrotation Xrotation Yrotation
		JOINT RightLeg
		{
			OFFSET	 0.000000	 0.000000	 0.570047
			CHANNELS 3 Zrotation Xrotation Yrotation
			JOINT RightFoot
			{
				OFFSET	 0.000000	 0.000000	 0.544354
				CHANNELS 3 Zrotation Xrotation Yrotation
				JOINT RightToeBase
				{
					OFFSET	 0.000000	 0.000000	 0.207540
					CHANNELS 3 Zrotation Xrotation Yrotation
					End Site
					{
						OFFSET	 0.000000	 0.000000	 0.207540
					}
				}
			}
		}
	}
	JOINT Spine
	{
		OFFSET	 0.000184	-0.007763	 0.117403
		CHANNELS 3 Zrotation Xrotation Yrotation
		JOINT Spine1
		{
			OFFSET	 0.000000	 0.000000	 0.137269
			CHANNELS 3 Zrotation Xrotation Yrotation
			JOINT Spine2
			{
				OFFSET	 0.000000	 0.000000	 0.156879
				CHANNELS 3 Zrotation Xrotation Yrotation
				JOINT LeftShoulder
				{
					OFFSET	 0.080501	-0.002496	 0.160144
					CHANNELS 3 Zrotation Xrotation Yrotation
					JOINT LeftArm
					{
						OFFSET	 0.000000	 0.000000	 0.164363
						CHANNELS 3 Zrotation Xrotation Yrotation
						JOINT LeftForeArm
						{
							OFFSET	 0.000000	 0.000000	 0.364576
							CHANNELS 3 Zrotation Xrotation Yrotation
							JOINT LeftHand
							{
								OFFSET	 0.000000	 0.000000	 0.360812
								CHANNELS 3 Zrotation Xrotation Yrotation
								JOINT LeftHandIndex1
								{
									OFFSET	 0.000000	 0.000000	 0.086006
									CHANNELS 3 Zrotation Xrotation Yrotation
									JOINT LeftHandIndex2
									{
										OFFSET	 0.000000	 0.000000	 0.047237
										CHANNELS 3 Zrotation Xrotation Yrotation
										JOINT LeftHandIndex3
										{
											OFFSET	-0.004284	-0.000551	 0.038165
											CHANNELS 3 Zrotation Xrotation Yrotation
											End Site
											{
												OFFSET	-0.004284	-0.000551	 0.038165
											}
										}
									}
								}
							}
						}
					}
				}
				JOINT Neck
				{
					OFFSET	 0.000000	 0.000000	 0.176489
					CHANNELS 3 Zrotation Xrotation Yrotation
					JOINT Head
					{
						OFFSET	 0.000000	-0.001747	 0.077940
						CHANNELS 3 Zrotation Xrotation Yrotation
						End Site
						{
							OFFSET	 0.000000	-0.001747	 0.077940
						}
					}
				}
				JOINT RightShoulder
				{
					OFFSET	-0.080363	 0.000306	 0.159706
					CHANNELS 3 Zrotation Xrotation Yrotation
					JOINT RightArm
					{
						OFFSET	 0.000000	 0.000000	 0.164196
						CHANNELS 3 Zrotation Xrotation Yrotation
						JOINT RightForeArm
						{
							OFFSET	 0.000000	 0.000000	 0.365611
							CHANNELS 3 Zrotation Xrotation Yrotation
							JOINT RightHand
							{
								OFFSET	 0.000000	 0.000000	 0.360648
								CHANNELS 3 Zrotation Xrotation Yrotation
								JOINT RightHandIndex1
								{
									OFFSET	 0.000000	 0.000000	 0.069977
									CHANNELS 3 Zrotation Xrotation Yrotation
									JOINT RightHandIndex2
									{
										OFFSET	 0.000000	 0.000000	 0.052305
										CHANNELS 3 Zrotation Xrotation Yrotation
										JOINT RightHandIndex3
										{
											OFFSET	 0.009002	-0.000782	 0.042196
											CHANNELS 3 Zrotation Xrotation Yrotation
											End Site
											{
												OFFSET	 0.009002	-0.000782	 0.042196
											}
										}
									}
								}
							}
						}
					}
				}
			}
		}
	}
}
MOTION
Frames:    11
Frame Time: 0.03333334
-0.407387	 0.183995	 1.227412	-175.258100	 11.998360	 12.609480	 8.374226	-7.433646	-177.918900	-7.761643	-35.820410	-4.893683	 109.896300	 59.837090	-125.540700	-2.385833	 28.452760	 0.000004	 12.363130	-50.990210	 165.435200	 5.627332	-46.820820	 2.995599	-7.264208	 69.729000	 24.158920	 2.384659	 28.388700	-0.000001	 42.687480	-22.410720	 17.869420	 48.901520	 19.531050	 8.623147	-17.932990	-4.836347	-22.003420	-91.776130	 78.527360	 180.000000	 1.995185	 48.375960	 2.377849	-0.476431	 2.295821	-114.124100	 1.981336	-26.975030	-1.820022	-4.130319	 21.525730	 0.991547	-5.167930	 0.731704	 3.519349	-1.378229	 35.397820	-2.634230	-17.861600	 7.681697	 7.579401	-26.134920	-22.104020	-16.606170	 89.782100	 78.203890	 180.000000	 85.799470	-2.351626	-7.185568	-10.844350	-4.377038	 57.540550	-70.095900	 7.428655	-88.975230	 5.716227	 19.173190	-3.685159	 5.027444	 0.246877	-9.377972	-2.350882	 35.473990	 5.254307
-0.412070	 0.195890	 1.230609	-173.561000	 10.961020	 10.423640	 9.300443	-2.914024	-176.401000	-7.984269	-30.837070	-4.404588	 108.408900	 58.952220	-122.653400	-2.385833	 28.452760	 0.000004	 15.483980	-49.131560	 168.975100	 5.727974	-48.089940	 3.132078	-5.637020	 72.030460	 22.115840	 2.384659	 28.388700	-0.000001	 38.859520	-19.415490	 17.611520	 45.282170	 18.112510	 10.988020	-16.750990	-4.198059	-21.170020	-91.776190	 78.527360	-180.000000	-2.534516	 46.460570	 10.848660	-0.346033	 2.357775	-116.026200	 2.573651	-28.844380	-1.657781	-4.130319	 21.525730	 0.991547	-5.167930	 0.731704	 3.519349	-1.378229	 35.397820	-2.634230	-17.123020	 7.676311	 8.344053	-25.364830	-21.951140	-17.406250	 89.782080	 78.203890	-180.000000	 80.818700	-12.243740	-7.338214	-9.559764	-3.303111	 61.375560	-72.808960	 12.406660	-81.979900	 5.716227	 19.173190	-3.685159	 5.027444	 0.246877	-9.377972	-2.350882	 35.473990	 5.254307
-0.413602	 0.201532	 1.232092	-172.257000	 10.037740	 9.813458	 10.175820	-0.486303	-176.525500	-8.266269	-28.465360	-4.233429	 109.330000	 58.298650	-122.725500	-2.385833	 28.452760	 0.000004	 16.955610	-47.856460	 170.169000	 5.559976	-48.229970	 3.013350	-3.424272	 72.928700	 19.257030	 2.384659	 28.388700	-0.000001	 35.882660	-18.109350	 16.597130	 43.324100	 16.879070	 12.856850	-15.783670	-3.500054	-20.806420	-91.776210	 78.527400	-180.000000	-6.052018	 46.508930	 15.832750	-0.151940	 2.729680	-117.130500	 2.889660	-30.704810	-1.710460	-4.130319	 21.525730	 0.991547	-5.167930	 0.731704	 3.519349	-1.378229	 35.397820	-2.634230	-16.430570	 7.674659	 8.237094	-24.741010	-22.290410	-16.633580	 89.782130	 78.203870	 180.000000	 75.789300	-16.048080	-8.329299	-9.487030	-3.291552	 62.237630	-73.348570	 12.651360	-79.911750	 5.716227	 19.173190	-3.685159	 5.027444	 0.246877	-9.377972	-2.350882	 35.473990	 5.254307
-0.413722	 0.204480	 1.233150	-171.304100	 9.521489	 9.530127	 10.693400	 0.596386	-176.797400	-8.711077	-27.458590	-4.305231	 109.408900	 57.858830	-122.374900	-2.385833	 28.452760	 0.000004	 18.335030	-47.043100	 170.981200	 5.109147	-47.893840	 2.662397	-0.106198	 73.186370	 15.358520	 2.384659	 28.388700	-0.000001	 33.654190	-17.438700	 15.688610	 42.094610	 15.894510	 14.245250	-14.832470	-2.429667	-20.556560	-91.776160	 78.527400	 180.000000	-9.069844	 46.855900	 18.740090	 0.056584	 3.214415	-117.648500	 3.093560	-32.326740	-1.884932	-4.130319	 21.525730	 0.991547	-5.167930	 0.731704	 3.519349	-1.378229	 35.397820	-2.634230	-15.949160	 7.923746	 8.801095	-24.337480	-22.093060	-17.659310	 89.782060	 78.203870	-179.999900	 71.055500	-18.074580	-9.320574	-9.471754	-3.208807	 61.976060	-73.013530	 12.985780	-80.060410	 5.716227	 19.173190	-3.685159	 5.027444	 0.246877	-9.377972	-2.350882	 35.473990	 5.254307
-0.413110	 0.205571	 1.233515	-170.422300	 8.689056	 9.136372	 10.863770	 1.604799	-176.922400	-9.325552	-27.013760	-4.526387	 110.612500	 57.465050	-122.987500	-2.385833	 28.452760	 0.000004	 19.213320	-45.902130	 171.495300	 4.932521	-47.449520	 2.513341	 1.117664	 73.183200	 13.924430	 2.384659	 28.388700	-0.000001	 31.595510	-15.709190	 14.656670	 40.772110	 14.583560	 15.737410	-13.938350	-2.064223	-19.982450	-91.776190	 78.527360	 180.000000	-11.499060	 47.193900	 20.891960	 0.284809	 3.783577	-117.933900	 3.107004	-33.567540	-2.193160	-4.130319	 21.525730	 0.991547	-5.167930	 0.731704	 3.519349	-1.378229	 35.397820	-2.634230	-14.990290	 8.995699	 7.850669	-23.820720	-23.508850	-16.359500	 89.782060	 78.203850	-180.000000	 65.447230	-19.132160	-10.911060	-9.299409	-2.949480	 61.962610	-71.461490	 11.870970	-80.887760	 5.716227	 19.173190	-3.685159	 5.027444	 0.246877	-9.377972	-2.350882	 35.473990	 5.254307
-0.412232	 0.205582	 1.233935	-169.620800	 7.963619	 9.024986	 12.319060	 2.236509	-177.636700	-10.175840	-27.094870	-4.936265	 113.570800	 57.072980	-125.081900	-2.385833	 28.452760	 0.000004	 21.834640	-45.106690	 172.457300	 3.884443	-46.849270	 1.723513	 5.538748	 72.734700	 9.288203	 2.384659	 28.388700	-0.000001	 29.673500	-14.276680	 13.328720	 39.766960	 13.220210	 17.214000	-12.789090	-1.196754	-19.369760	-91.776180	 78.527420	-180.000000	-14.327630	 47.870930	 22.524580	 0.400721	 4.063390	-118.070600	 3.656645	-34.898400	-2.220025	-4.130319	 21.525730	 0.991547	-5.167930	 0.731704	 3.519349	-1.378229	 35.397820	-2.634230	-13.835050	 8.490424	 7.283141	-22.850040	-22.898220	-15.258270	 89.782030	 78.203870	-180.000000	 60.645310	-19.418640	-12.689690	-9.231297	-2.884813	 62.337140	-68.481630	 10.992230	-81.085580	 5.716227	 19.173190	-3.685159	 5.027444	 0.246877	-9.377972	-2.350882	 35.473990	 5.254307
-0.411918	 0.205101	 1.234101	-169.453400	 7.429127	 9.218667	 13.448120	 2.587191	-178.299700	-10.989800	-27.313380	-5.357694	 116.442600	 56.920130	-127.066800	-2.385833	 28.452760	 0.000004	 22.578170	-44.531160	 172.348100	 3.428582	-46.357440	 1.379490	 6.480347	 72.208030	 8.377496	 2.384659	 28.388700	-0.000001	 28.862440	-13.402370	 12.285290	 39.300920	 12.213070	 18.118600	-11.975730	-0.410427	-18.996000	-91.776200	 78.527420	-180.000000	-15.612330	 48.176700	 22.989890	 0.464597	 4.221950	-118.129300	 3.776777	-35.577670	-2.287056	-4.130319	 21.525730	 0.991547	-5.167930	 0.731704	 3.519349	-1.378229	 35.397820	-2.634230	-13.317770	 8.331174	 7.440278	-22.337270	-22.468190	-15.689460	 89.782110	 78.203900	 180.000000	 59.041730	-19.272290	-13.501340	-9.319931	-3.036453	 62.620990	-66.016040	 10.572630	-80.452490	 5.716227	 19.173190	-3.685159	 5.027444	 0.246877	-9.377972	-2.350882	 35.473990	 5.254307
-0.412121	 0.204630	 1.234373	-169.819100	 7.396068	 9.007188	 14.435500	 2.924540	-178.223000	-11.568020	-26.729100	-5.521324	 117.782800	 56.273460	-127.552100	-2.385833	 28.452760	 0.000004	 23.756610	-44.628380	 173.001500	 2.887978	-46.476140	 0.990065	 9.048719	 71.991390	 5.836411	 2.384659	 28.388700	-0.000001	 29.170090	-13.232850	 12.510080	 39.114420	 12.039130	 18.132770	-11.711600	-0.272117	-18.792050	-91.776240	 78.527380	-180.000000	-15.505700	 47.979710	 22.741900	 0.490412	 4.294327	-118.122800	 3.521057	-35.544770	-2.391572	-4.130319	 21.525730	 0.991547	-5.167930	 0.731704	 3.519349	-1.378229	 35.397820	-2.634230	-13.363120	 8.372218	 7.813979	-22.240860	-22.272620	-16.521680	 89.782070	 78.203890	-180.000000	 58.998230	-19.059260	-13.686540	-9.375401	-3.125924	 62.726140	-64.050250	 11.097200	-79.644290	 5.716227	 19.173190	-3.685159	 5.027444	 0.246877	-9.377972	-2.350882	 35.473990	 5.254307
-0.412319	 0.204120	 1.234780	-170.635200	 7.263301	 9.621181	 15.086460	 2.729429	-178.713300	-12.557240	-26.962150	-6.031829	 120.752200	 55.129890	-129.445400	-2.385833	 28.452760	 0.000004	 23.102180	-44.455970	 172.004500	 2.713203	-45.720470	 0.852426	 8.739280	 70.967310	 6.092637	 2.384659	 28.388700	-0.000001	 29.674480	-13.496720	 11.974400	 39.061710	 11.480250	 18.369300	-11.371910	 0.378657	-18.784450	-91.776190	 78.527400	 180.000000	-13.184830	 47.086190	 20.803010	 0.554615	 4.477213	-118.097600	 2.278871	-34.325730	-2.775981	-4.130319	 21.525730	 0.991547	-5.167930	 0.731704	 3.519349	-1.378229	 35.397820	-2.634230	-13.303560	 8.776331	 7.131340	-22.366650	-22.690890	-16.528540	 89.782120	 78.203920	 180.000000	 61.229550	-18.243190	-13.090980	-9.469296	-3.256003	 62.752060	-61.976790	 12.304200	-77.521670	 5.716227	 19.173190	-3.685159	 5.027444	 0.246877	-9.377972	-2.350882	 35.473990	 5.254307
-0.411945	 0.203963	 1.235788	-170.828400	 7.485800	 9.988701	 15.051820	 2.259059	-178.933700	-12.869920	-27.142700	-6.217731	 122.015900	 54.257950	-130.360600	-2.385833	 28.452760	 0.000004	 22.554860	-44.498240	 171.529300	 2.771607	-45.140620	 0.885373	 9.082643	 70.509700	 5.485793	 2.384659	 28.388700	-0.000001	 29.623210	-14.212760	 11.959920	 38.953690	 11.136510	 18.356420	-10.946270	 0.907280	-18.976980	-91.776120	 78.527420	 180.000000	-11.104300	 46.557500	 18.833910	 0.520450	 4.420372	-117.920700	 1.459825	-33.014400	-2.880116	-4.130319	 21.525730	 0.991547	-5.167930	 0.731704	 3.519349	-1.378229	 35.397820	-2.634230	-13.175940	 9.004639	 6.912328	-22.352430	-23.119790	-16.670450	 89.782110	 78.203890	 180.000000	 63.917050	-17.023560	-12.311490	-9.485548	-3.273720	 62.782070	-60.373930	 13.251820	-74.817020	 5.716227	 19.173190	-3.685159	 5.027444	 0.246877	-9.377972	-2.350882	 35.473990	 5.254307
-0.411609	 0.203411	 1.237947	-171.915000	 7.780794	 10.363420	 14.979380	 1.994982	-178.767600	-12.903740	-26.645360	-6.128912	 121.616800	 53.809990	-129.753400	-2.385833	 28.452760	 0.000004	 22.041280	-44.589740	 171.030000	 2.961693	-44.387870	 1.006741	 8.917272	 70.307370	 5.538446	 2.384659	 28.388700	-0.000001	 30.755570	-15.585040	 12.449170	 39.113220	 11.582170	 17.798930	-10.958210	 0.976188	-19.311820	-91.776210	 78.527360	-180.000000	-7.086223	 45.569010	 14.979660	 0.495282	 4.464381	-117.433100	 0.038762	-30.519870	-3.090844	-4.130319	 21.525730	 0.991547	-5.167930	 0.731704	 3.519349	-1.378229	 35.397820	-2.634230	-13.479610	 8.475950	 6.818732	-22.582530	-22.828170	-16.948220	 89.782180	 78.203870	 179.999900	 68.580660	-14.366120	-11.190010	-9.176257	-2.828886	 62.838890	-59.763830	 13.870270	-72.721490	 5.716227	 19.173190	-3.685159	 5.027444	 0.246877	-9.377972	-2.350882	 35.473990	 5.254307
